<?xml version="1.0" encoding="utf-8"?>
<!-- Generator: Adobe Illustrator 16.0.0, SVG Export Plug-In . SVG Version: 6.00 Build 0)  -->
<!DOCTYPE svg PUBLIC "-//W3C//DTD SVG 1.1//EN" "http://www.w3.org/Graphics/SVG/1.1/DTD/svg11.dtd">
<svg version="1.1" id="Layer_1" xmlns="http://www.w3.org/2000/svg" xmlns:xlink="http://www.w3.org/1999/xlink" x="0px" y="0px"
	 width="978px" height="977px" viewBox="0 0 978 977" enable-background="new 0 0 978 977" xml:space="preserve">
<path fill="#0376F2" d="M488.604,10.857c-264.859,0-479.571,214.711-479.571,479.571c0,264.859,214.712,479.571,479.571,479.571
	c264.86,0,479.571-214.712,479.571-479.571C968.175,225.568,753.464,10.857,488.604,10.857z M44.312,490.428
	c0-51.519,8.668-101.7,25.78-149.521l46.134,32.041v359.943c-14.322-21.955-26.706-45.166-37.013-69.536
	C56.056,608.604,44.312,550.422,44.312,490.428z M802.765,804.588c-40.814,40.814-88.332,72.854-141.234,95.23
	c-54.751,23.157-112.933,34.899-172.927,34.899s-118.175-11.742-172.927-34.899c-52.902-22.376-100.42-54.416-141.234-95.229
	c-12.875-12.875-24.873-26.421-35.974-40.589H384l96.691-70V313.004L384,241H120.848c15.689-23.083,33.58-44.719,53.594-64.733
	c40.814-40.814,88.332-72.854,141.234-95.23c54.752-23.158,112.933-34.9,172.927-34.9s118.176,11.742,172.927,34.9
	c52.902,22.376,100.42,54.416,141.234,95.23c20.014,20.014,37.904,41.65,53.594,64.733H786.17l-15.772,34.818L723.531,241H614.479
	l-95.985,72.003V694l95.534,70h224.71C827.637,778.168,815.64,791.713,802.765,804.588z M214.257,360.708h87.817
	c24.566,0,44.481,19.914,44.481,44.481v196.888c0,24.565-19.915,44.48-44.481,44.48h-52.682V386.166L214.257,360.708z
	 M872.691,713.912v-135.72H748.416v68.365h-53.681c-23.474,0-42.503-19.028-42.503-42.503V386.223l-35.149-25.515h131.333v74.634
	h113.91l22.657-145.833c4.642,9.154,8.987,18.482,13.01,27.992c23.159,54.752,34.901,112.933,34.901,172.927
	c0,59.994-11.742,118.176-34.901,172.927C890.608,680.813,882.149,697.673,872.691,713.912z"/>
</svg>
